Coordinates
version=1
nRows=5
nColumns=40
inDegrees=yes

Units are S.I. units (second, meters, Newtons, ...)
Angles are in degrees.

endheader
time	pelvis_tilt	pelvis_list	pelvis_rotation	pelvis_tx	pelvis_ty	pelvis_tz	hip_flexion_r	hip_adduction_r	hip_rotation_r	knee_angle_r	knee_angle_r_beta	ankle_angle_r	subtalar_angle_r	mtp_angle_r	hip_flexion_l	hip_adduction_l	hip_rotation_l	knee_angle_l	knee_angle_l_beta	ankle_angle_l	subtalar_angle_l	mtp_angle_l	lumbar_extension	lumbar_bending	lumbar_rotation	arm_flex_r	arm_add_r	arm_rot_r	elbow_flex_r	pro_sup_r	wrist_flex_r	wrist_dev_r	arm_flex_l	arm_add_l	arm_rot_l	elbow_flex_l	pro_sup_l	wrist_flex_l	wrist_dev_l
      0.69000000	     -2.71483390	      0.93804253	     -2.00424912	     -0.54571917	      0.89018860	      1.05193828	     17.54021324	     -5.65720593	     -7.00728385	    -65.52173815	     -1.14357006	     -1.91002008	    -17.30621052	     19.68622746	     20.35619188	     -1.26929714	     10.35815119	    -31.76708430	     -0.55444021	      9.98067702	     11.79262082	      3.89124546	     -3.31166781	     -3.08354635	     -5.49998676	      0.36917828	     -8.05854057	    -13.82902682	     29.31193922	     89.95437384	      0.00000000	      0.00000000	     -3.29706615	     10.30167221	     18.84430831	     34.78924994	     89.95437384	      0.00000000	      0.00000000
      0.70000000	     -2.62855598	      0.69919632	     -1.68505395	     -0.53917146	      0.89074523	      1.05051993	     18.30111980	     -5.40675156	     -7.32621215	    -65.65896731	     -1.14596516	     -0.96631921	    -17.09138265	     19.42311162	     19.74762407	     -1.21073726	     10.09859930	    -31.67695964	     -0.55286724	     10.33772752	     11.64492506	      3.79093681	     -3.43635866	     -2.80684266	     -5.81793627	      0.23216419	     -7.96449747	    -14.04684725	     28.90951436	     89.95437384	      0.00000000	      0.00000000	     -2.79693233	     10.44744016	     18.66218813	     34.83931836	     89.95437384	      0.00000000	      0.00000000
      0.71000000	     -2.60989031	      0.51233809	     -1.45015633	     -0.53294543	      0.89117262	      1.04913958	     19.20472532	     -5.28307572	     -7.68690028	    -65.68330942	     -1.14639001	     -0.54381337	    -16.93967758	     19.11394835	     19.22567539	     -1.13090598	     10.11253084	    -31.56307880	     -0.55087965	     10.46384776	     11.45595956	      3.71722680	     -3.50659496	     -2.58284188	     -6.06789681	      0.02905513	     -7.91697619	    -14.05341090	     28.69878030	     89.95437384	      0.00000000	      0.00000000	     -2.35302541	     10.56027987	     18.57112544	     35.03455995	     89.95437384	      0.00000000	      0.00000000
      0.72000000	     -2.47741306	      0.26875530	     -1.00050080	     -0.52633252	      0.89179470	      1.04768888	     19.74824064	     -5.07564130	     -8.18844564	    -65.34273785	     -1.14044592	      0.80148307	    -16.83518732	     18.96691596	     18.53022360	     -1.12761326	      9.59155375	    -31.42657403	     -0.54849719	     10.92698441	     11.22596870	      3.53056475	     -3.65061795	     -2.32109127	     -6.48391913	     -0.06916721	     -7.78363169	    -14.49485830	     28.21191810	     89.95437384	      0.00000000	      0.00000000	     -1.93927756	     10.77777282	     18.22460091	     35.21745735	     89.95437384	      0.00000000	      0.00000000
      0.73000000	     -2.51464213	      0.17106964	     -0.81592820	     -0.51986878	      0.89202039	      1.04643326	     20.63698055	     -5.03334826	     -8.53611834	    -64.96120378	     -1.13378689	      1.30805421	    -16.80287826	     18.71698766	     17.99424264	     -1.09958421	      9.70145737	    -31.24793050	     -0.54537927	     11.14484425	     11.02438427	      3.45005183	     -3.61102166	     -2.20508857	     -6.68709198	     -0.30322930	     -7.74875165	    -14.49350028	     27.99888135	     89.95437384	      0.00000000	      0.00000000	     -1.56638824	     10.89314818	     18.16631084	     35.41486481	     89.95437384	      0.00000000	      0.00000000
